#!OML:ASF E:\emotionWalksFemale\Project 1\Capture day 1\Session 1\Female1.ASF
:FULLY-SPECIFIED
:DEGREES
335
root 8.6772 15.6271 -8.23187 -179.553 1.97925 -178.119
lowerback 7.26138 0.504691 1.67404
upperback -6.66356 1.14099 -0.203441
thorax -11.2087 0.515967 -1.37312
lowerneck -4.93024 -1.38597 -5.12881
upperneck -0.179188 -1.71924 5.92267
head 0.905309 -0.821665 2.74668
rclavicle 8.74653e-015 -8.15017e-015
rhumerus -45.4261 -9.40633 -46.6759
rradius 71.4617
rwrist -9.53354
rhand 4.91956 -53.8796
rfingers 7.12502
rthumb 30.2932 -81.4133
lclavicle 8.74653e-015 -8.15017e-015
lhumerus -56.0824 15.5244 51.0869
lradius 81.7468
lwrist 23.0959
lhand -16.5958 -53.9489
lfingers 7.12502
lthumb 9.62531 -24.1888
rfemur 5.10021 20.1134 28.286
rtibia 13.4535
rfoot -16.2415 -32.0705
rtoes 2.16056
lfemur -0.76131 -20.0224 -24.8042
ltibia 23.9046
lfoot -27.5384 24.6844
ltoes -8.39987
336
root 8.67663 15.6221 -8.24509 -179.429 2.01548 -178.044
lowerback 7.0607 0.583537 1.72702
upperback -6.62227 1.25679 -0.132021
thorax -11.0369 0.573737 -1.34019
lowerneck -4.69977 -1.34556 -5.50386
upperneck -0.677716 -1.65439 6.30253
head 0.712341 -0.795039 2.94715
rclavicle 5.2181e-015 6.36111e-015
rhumerus -46.7403 -10.838 -48.0908
rradius 69.6293
rwrist -9.94445
rhand 0.910758 -56.3327
rfingers 7.12502
rthumb 26.4624 -84.5052
lclavicle 5.2181e-015 6.36111e-015
lhumerus -57.5045 17.4291 51.5769
lradius 78.4957
lwrist 22.4567
lhand -16.8002 -54.1371
lfingers 7.12502
lthumb 9.42814 -24.368
rfemur 5.03389 20.2592 28.3808
rtibia 13.4654
rfoot -16.3954 -32.2442
rtoes 2.03807
lfemur -0.783695 -20.0766 -24.7152
ltibia 23.7639
lfoot -27.5681 24.8993
ltoes -9.072
337
root 8.67715 15.6079 -8.25833 -179.403 2.08584 -178.267
lowerback 6.99546 0.684258 1.43446
upperback -6.50081 1.34665 -0.0951641
thorax -10.8631 0.63988 -1.14674
lowerneck -5.03626 -1.50999 -5.39075
upperneck -0.750733 -1.85547 5.78488
head 0.750826 -0.895774 2.74417
rclavicle 2.48481e-016 3.77691e-015
rhumerus -47.8505 -12.735 -48.6009
rradius 67.4098
rwrist -7.32232
rhand 3.12228 -56.3347
rfingers 7.12502
rthumb 28.5774 -84.1703
lclavicle 2.48481e-016 3.77691e-015
lhumerus -58.7338 19.0264 52.0936
lradius 75.1798
lwrist 21.6593
lhand -16.7018 -53.9514
lfingers 7.12502
lthumb 9.52307 -24.1866
rfemur 4.99475 20.3818 28.1526
rtibia 13.6105
rfoot -16.5488 -32.3396
rtoes 1.43212
lfemur -0.664978 -20.0258 -25.0027
ltibia 23.527
lfoot -27.4101 25.326
ltoes -10.8891
338
root 8.67967 15.5881 -8.26784 -179.451 2.11221 -178.627
lowerback 7.14278 0.804823 1.01681
upperback -6.35768 1.43858 -0.129655
thorax -10.796 0.70867 -0.964078
lowerneck -5.33138 -1.62017 -5.58715
upperneck -1.1453 -1.9835 5.85067
head 0.688034 -0.962714 2.79858
rclavicle -8.57259e-015 -2.18663e-015
rhumerus -48.9385 -13.8975 -49.5296
rradius 65.3479
rwrist -7.26132
rhand 2.25542 -55.329
rfingers 7.12502
rthumb 27.7488 -83.3011
lclavicle -8.57259e-015 -2.18663e-015
lhumerus -59.7785 20.0613 52.679
lradius 71.7834
lwrist 20.6035
lhand -16.3289 -53.4337
lfingers 7.12502
lthumb 9.88283 -23.6856
rfemur 4.98417 20.4056 27.797
rtibia 13.8927
rfoot -16.9125 -32.321
rtoes 0.767564
lfemur -0.385266 -19.8819 -25.4589
ltibia 23.1865
lfoot -27.1298 25.6242
ltoes -12.4546
339
root 8.68319 15.5722 -8.27464 -179.511 2.09377 -178.897
lowerback 7.39541 0.915428 0.706485
upperback -6.30263 1.53921 -0.15974
thorax -10.891 0.774428 -0.843323
lowerneck -5.61781 -1.70179 -5.60559
upperneck -1.27061 -2.0822 5.76932
head 0.702879 -1.01287 2.77067
rclavicle -4.00054e-015 -1.98785e-016
rhumerus -50.1654 -14.4949 -50.663
rradius 64.0662
rwrist -7.87733
rhand 1.04015 -56.6812
rfingers 7.12502
rthumb 26.5863 -84.835
lclavicle -4.00054e-015 -1.98785e-016
lhumerus -60.5668 20.7083 53.1395
lradius 67.8759
lwrist 19.148
lhand -15.8018 -52.7227
lfingers 7.12502
lthumb 10.3914 -22.9994
rfemur 4.96388 20.4099 27.5553
rtibia 14.2476
rfoot -17.4134 -32.3129
rtoes 0.432838
lfemur -0.0642035 -19.7699 -25.8117
ltibia 22.7954
lfoot -26.9077 25.659
ltoes -12.6506
340
root 8.68692 15.5601 -8.28324 -179.69 2.07243 -179.067
lowerback 7.85604 0.95653 0.450242
upperback -6.29644 1.56126 -0.115208
thorax -11.1704 0.800567 -0.666287
lowerneck -5.00569 -1.56056 -5.96851
upperneck -2.24157 -1.9013 6.27966
head 0.287855 -0.93797 3.02066
rclavicle 6.58474e-015 1.19271e-015
rhumerus -51.1835 -15.0715 -51.611
rradius 62.2149
rwrist -8.00572
rhand 0.30023 -56.309
rfingers 7.12502
rthumb 25.8779 -84.5681
lclavicle 6.58474e-015 1.19271e-015
lhumerus -61.2393 20.9631 53.5815
lradius 63.6957
lwrist 17.3012
lhand -15.5088 -52.0404
lfingers 7.12502
lthumb 10.674 -22.3316
rfemur 5.1372 20.4821 27.4824
rtibia 14.4949
rfoot -17.7612 -32.4226
rtoes -0.0645063
lfemur 0.336839 -19.7243 -26.1051
ltibia 22.456
lfoot -26.8875 25.6631
ltoes -12.256
341
root 8.69022 15.5476 -8.28821 -180.089 2.08795 -179.21
lowerback 8.44854 1.06219 0.400392
upperback -6.12004 1.67111 -0.130709
thorax -11.3302 0.843503 -0.684495
lowerneck -5.59939 -1.77712 -5.6231
upperneck -1.99294 -2.1848 5.61766
head 0.472795 -1.07665 2.72011
rclavicle -5.91384e-015 -1.78906e-015
rhumerus -51.9858 -15.6757 -52.7432
rradius 60.5983
rwrist -8.23824
rhand -0.513998 -58.2447
rfingers 7.12502
rthumb 25.098 -86.6153
lclavicle -5.91384e-015 -1.78906e-015
lhumerus -61.3815 20.7137 54.4296
lradius 59.3791
lwrist 15.0746
lhand -15.0858 -51.4255
lfingers 7.12502
lthumb 11.082 -21.738
rfemur 5.64444 20.4599 27.4964
rtibia 14.4749
rfoot -17.709 -32.48
rtoes -0.922727
lfemur 0.888065 -19.7561 -26.4762
ltibia 22.2762
lfoot -26.8887 25.9622
ltoes -12.5247
